<?xml version="1.0" encoding="UTF-8"?><svg id="Ebene_1" xmlns="http://www.w3.org/2000/svg" viewBox="0 0 583.93 170.08"><defs><style>.cls-1{fill:#fff;}.cls-2{fill:#009ee0;}</style></defs><polygon class="cls-2" points="0 0 170.08 0 170.08 170.08 0 170.08 0 0 0 0"/><path class="cls-1" d="M0,48.39c30.43,.27,66.92-.63,66.92,13.65,0,26.94-55.83,62.71-55.83,80.49,0,7.83,18.53,13.01,27.75,27.54h-12.82c-7.28-8.71-18.68-14.54-26.02-19.63v-21.79c14.85-16.96,47.96-38.61,47.96-59.51,0-7.47-23.72-9-47.96-11.08v-9.68H0ZM50.54,0C33.32,6.88,15.36,13.3,0,19.07v-6.24C11.65,8.67,24.22,4.4,36.52,0h14.01Z"/><path class="cls-1" d="M121.25,0C102.25,10.14,24.51,23.24,24.51,28.73c0,6.25,61.07,1.94,61.07,10.33s-56.45,26.43-56.45,33.54,29.67-.84,29.67,8.68S10.32,115.14,10.32,123.95s39.5,10.67,39.5,25.03c0,6.32-3.25,14.22-6.88,21.09h-11.81c2.94-6.06,5.3-12.59,5.3-17.97,0-10.92-24.63-14.58-36.42-19.59v-13.38c12.06-10.2,37.66-24.34,37.66-31.62,0-9.52-31.97-4.82-31.97-11.93s57.13-25.03,57.13-33.41c0-6.41-42.67-4.85-62.82-6.96v-8.11C24.81,19.72,86.1,8.27,90.23,0h31.02Z"/><g><path class="cls-1" d="M127.61,34.81h3.56c.53,0,1.02,.2,1.4,.51,.02-.11,.04-.22,.04-.34,0-.94-.77-1.71-1.71-1.71h-3.05c-.96,0-1.75-.79-1.75-1.76v-1.71c-.74,.49-1.23,1.32-1.23,2.27,0,1.51,1.23,2.73,2.74,2.73Z"/><path class="cls-1" d="M155.27,32.07c1.27-.99,1.55-1.87,1.16-3.2-.51-1.14-1.03-1.96-1.03-3.18,0-.66,.28-1.43,.66-2.04-1.94,1.32-3.25,3.65-3.25,6.17,0,1.01,.24,2,.61,2.88,.51,1.07,.81,2.28,.81,3.55,0,2.2-.87,4.19-2.27,5.67-1.4-1.48-2.28-3.48-2.28-5.67,0-1.27,.3-2.48,.81-3.55,.37-.88,.61-1.87,.61-2.88,0-2.52-1.32-4.85-3.25-6.17,.38,.61,.66,1.38,.66,2.04,0,1.22-.52,2.04-1.03,3.18-.38,1.33-.11,2.21,1.16,3.2-.58,1.28-.9,2.69-.9,4.18,0,2.66,1.02,5.08,2.69,6.89-1.26,1.37-2.15,3.09-2.51,4.99-.12,.62-.18,1.25-.18,1.9,0,2.71,1.05,5.16,2.78,6.99l.7,.66c.42,.35,.67,.89,.67,1.48,0,1.07-.87,1.93-1.93,1.93-.54,0-1.01-.21-1.36-.58-.25-.22-.45-.5-.57-.82l-4.82-11.56h-21.43c-1.12,.91-1.99,1.61-1.99,1.61-.08,.07-.18,.11-.29,.11-.21,0-.39-.14-.44-.34v-1.37s0,0,0,0v-1.38c0-.54-.43-.97-.97-.97-.15,0-.28,.03-.41,.09l-1.04,.52v-3.31h8.98l1.06,1.02s-2.87,2.38-4.91,4.04h21.43l-1.68-4.04,2.4-4.45c.59-1.15,.92-2.44,.92-3.82,0-3.39-2.01-6.32-4.9-7.65l.67-3.88-2.59,1.94-1.95-2.59-1.94,2.59-2.59-1.94,.65,3.89h-2.92s-.65,0-.65,.65v2.58c0,.65,.65,.66,.65,.66h2.91c1.07,0,1.94,.87,1.94,1.94v2.06c0,.11-.09,.2-.2,.2h-3.71s-.64,0-.64,.65v.65s0,.65,.66,.65h3.64s-3.39,2.77-3.39,2.77l-9.94-7.12c-.2-.16-.34-.41-.34-.69,0-.19,.06-.35,.16-.49l1.64-2.26c.12-.16,.19-.37,.19-.58,0-.41-.24-.75-.59-.91l-1.62-.75c-.66-2.11-2.65-3.61-4.98-3.61-2.86,0-5.18,2.32-5.18,5.18,0,2.3,1.5,4.25,3.57,4.93v6.39h-9.07v2.01h9.06v21.47s3.24,0,3.24,0v-10.46s2.43,0,2.43,0l12.33-5.58,6.56,6.18c.05,0,0,0,0,0h0s-.02,0-.03,0c-5.08,.21-9.15,4.17-9.58,9.2v.66s-.03,3.38-.03,3.38c-.1,1.77-1.5,3.2-3.27,3.34h-.9s0,0,0,0h0s0,0,0,0c.15-.79,.23-1.6,.23-2.44v-2.76l1.62-1.3-.11-.23h0s-3.12-6.25-3.12-6.25l-3.12,6.25h0l-.11,.23,1.62,1.3v2.76c0,3.46-1.92,6.57-4.65,8.29,.07-.44,.14-.93,.14-1.43v-11.14s-3.24,0-3.24,0v11.16c0,.5,.04,.97,.11,1.41-2.73-1.72-4.65-4.83-4.65-8.29v-2.76l1.62-1.3-.11-.23h0s-3.12-6.25-3.12-6.25l-3.12,6.25h0l-.11,.23,1.62,1.3v2.76c0,5.92,3.96,10.59,9.38,12.13,3.21-.92,5.91-2.93,7.57-5.65h7.35c.37,0,1-.21,1.26-.91l2.37-7.42c.3-.95,.83-1.78,1.53-2.43h0c1.01-.94,2.37-1.51,3.88-1.51v1.51s0,3.47,0,3.47c0,1.79,1.45,3.24,3.24,3.24h6.42c.57,0,1.03,.47,1.03,1.04v.25c0,2.15-1.74,3.88-3.89,3.88h-1.3c-1.07,0-1.94,.87-1.94,1.94v1.93s7.53,0,7.53,0c.58,0,1.04-.37,1.21-.89,0,0,2.92-8.16,2.92-8.16,.03-.16,.02-.33,.02-.5,0-.92-.54-1.72-1.32-2.09l-5.37-2.38v-1.74s0-.04,0-.04c0-.83,.67-1.5,1.5-1.5,.27,.06,.64,.08,.93,.08,2.18,0,3.96-1.77,3.96-3.96,0-.76-.21-1.47-.59-2.08,1.73-1.83,2.8-4.3,2.8-7.01,0-.65-.06-1.29-.17-1.9-.35-1.9-1.22-3.62-2.47-4.99,1.67-1.81,2.69-4.23,2.69-6.89,0-1.49-.32-2.91-.9-4.18Zm-19.21-3.4c.62,0,1.13,.51,1.13,1.13s-.51,1.13-1.13,1.13-1.13-.51-1.13-1.13,.51-1.13,1.13-1.13Zm-12.58,12.41h-6.85s0-6.42,0-6.42l6.84,6.42Zm-11.1-11.32c0-1.45,1.18-2.64,2.64-2.64s2.64,1.18,2.64,2.64-1.18,2.64-2.64,2.64-2.64-1.18-2.64-2.64Zm41.62,18.38c.15,.61,.22,1.25,.22,1.91,0,2.21-.87,4.21-2.27,5.69-1.41-1.48-2.28-3.49-2.28-5.69,0-.66,.08-1.29,.22-1.9,.34-1.44,1.07-2.73,2.05-3.77,.99,1.04,1.71,2.33,2.05,3.77Z"/></g><g><path class="cls-1" d="M247.55,49.44c-.31,1.6-1.39,6.49-1.85,8.09h-23.33v-1.44c4.33-.31,4.74-.67,4.74-5.05V30.44c0-4.38-.31-4.63-4.53-4.94v-1.44h13.44v1.44c-4.07,.31-4.53,.52-4.53,4.94v20.34c0,2.78,.26,3.81,1.18,4.33,1.03,.57,2.78,.67,4.94,.67,2.83,0,4.58-.26,5.77-1.6,.93-1.03,1.85-2.68,2.63-5.05l1.54,.31Z"/><path class="cls-1" d="M266.91,58.14c-.77,0-1.85-.46-2.42-1.03-.67-.67-.98-1.39-1.24-2.27-2.06,1.39-4.53,3.3-6.08,3.3-3.66,0-6.18-3.04-6.18-6.28,0-2.52,1.34-4.12,4.17-5.1,3.09-1.03,6.85-2.42,7.98-3.35v-.88c0-3.76-1.75-5.82-4.38-5.82-.98,0-1.75,.36-2.32,.98-.62,.72-1.08,1.85-1.49,3.4-.26,.82-.77,1.18-1.49,1.18-.93,0-2.21-.98-2.21-2.21,0-.72,.62-1.34,1.6-2.06,1.39-1.03,4.79-2.99,7.72-3.6,1.55,0,3.09,.46,4.22,1.39,1.8,1.55,2.32,3.6,2.32,6.33v9.53c0,2.32,.93,3.09,1.8,3.09,.62,0,1.34-.26,1.85-.57l.52,1.34-4.38,2.63Zm-3.76-12.98c-1.08,.57-3.55,1.65-4.63,2.16-2.01,.93-3.14,1.91-3.14,3.81,0,2.63,2.06,3.91,3.66,3.91,1.34,0,3.14-.88,4.12-1.85v-8.03Z"/><path class="cls-1" d="M287.36,57.53v-1.34c3.04-.31,3.4-.72,3.4-4.27v-8.6c0-3.55-1.24-5.87-4.69-5.87-2.06,0-4.07,1.29-5.61,2.63v12.1c0,3.5,.31,3.71,3.35,4.02v1.34h-11.17v-1.34c3.5-.36,3.76-.62,3.76-4.02v-10.61c0-3.3-.31-3.5-3.09-4.02v-1.18c2.47-.46,4.89-1.08,7.16-2.06v4.07c1.03-.77,2.16-1.54,3.45-2.42,1.44-.93,2.78-1.54,4.27-1.54,4.12,0,6.64,2.88,6.64,7.83v9.94c0,3.5,.31,3.71,3.3,4.02v1.34h-10.76Z"/><path class="cls-1" d="M325.73,56.19c-1.13,.21-5,.88-7.98,1.96v-3.35l-3.14,1.85c-2.06,1.18-3.45,1.49-4.02,1.49-4.12,0-9.53-3.76-9.53-10.97s6.23-12.77,13.23-12.77c.72,0,2.27,.15,3.45,.62v-7.36c0-3.35-.26-3.5-3.97-3.76v-1.29c2.68-.31,6.13-1.13,8.03-1.75v30.74c0,2.68,.36,2.94,2.27,3.14l1.65,.15v1.29Zm-7.98-17.2c-1.24-1.8-3.4-2.63-5.3-2.63-2.42,0-6.75,1.96-6.75,9.42,0,6.13,3.76,9.12,7.11,9.12,1.8,0,3.71-.82,4.94-1.75v-14.16Z"/><path class="cls-1" d="M346.64,53.2c-3.24,4.02-6.8,4.94-8.39,4.94-6.33,0-10.04-5.15-10.04-10.97,0-3.5,1.29-6.69,3.4-9.01,2.11-2.32,4.89-3.76,7.52-3.76h.05c4.27,0,7.72,3.86,7.72,7.83,0,1.03-.21,1.44-1.18,1.65-.82,.15-7.31,.67-13.49,.88,.05,7,4.12,9.89,7.72,9.89,2.11,0,4.02-.82,5.92-2.58l.77,1.13Zm-14.16-10.56c2.88,0,5.77-.05,8.75-.15,.93,0,1.24-.26,1.24-1.03,.05-2.68-1.7-5.15-4.58-5.15-2.32,0-4.63,2.16-5.41,6.33Z"/><path class="cls-1" d="M363.33,41.15c-1.03-3.09-2.78-5.1-5.3-5.1-2.01,0-3.35,1.49-3.35,3.55,0,2.27,2.06,3.45,4.33,4.43,3.91,1.6,6.54,3.45,6.54,7,0,4.69-4.38,7.11-8.5,7.11-2.63,0-5-.98-5.87-1.75-.36-.72-.88-4.22-.88-6.08l1.39-.26c.88,3.4,3.19,6.39,6.28,6.39,1.91,0,3.66-1.39,3.66-3.6s-1.49-3.5-4.07-4.69c-3.09-1.39-6.44-3.14-6.44-7.06,0-3.6,3.09-6.69,7.83-6.69,2.11,0,3.5,.46,4.53,.93,.46,1.13,1.03,4.22,1.13,5.46l-1.29,.36Z"/><path class="cls-1" d="M382.44,57.53v-1.34c2.99-.31,3.4-.62,3.4-3.97v-8.55c0-4.22-1.6-6.33-5.05-6.33-1.96,0-3.91,.98-5.36,2.63v12.26c0,3.3,.26,3.66,3.35,3.97v1.34h-10.97l.05-1.34c3.09-.26,3.5-.57,3.5-3.97V27.66c0-3.24-.1-3.45-3.5-3.76v-1.24c2.47-.36,5.56-1.18,7.57-1.8v17.3c1.85-1.85,4.58-3.76,7.36-3.76,4.17,0,7.11,2.63,7.11,8.81v9.01c0,3.4,.41,3.71,3.4,3.97v1.34h-10.87Z"/><path class="cls-1" d="M412.16,58.14c-.77,0-1.85-.46-2.42-1.03-.67-.67-.98-1.39-1.24-2.27-2.06,1.39-4.53,3.3-6.08,3.3-3.66,0-6.18-3.04-6.18-6.28,0-2.52,1.34-4.12,4.17-5.1,3.09-1.03,6.85-2.42,7.98-3.35v-.88c0-3.76-1.75-5.82-4.38-5.82-.98,0-1.75,.36-2.32,.98-.62,.72-1.08,1.85-1.49,3.4-.26,.82-.77,1.18-1.49,1.18-.93,0-2.21-.98-2.21-2.21,0-.72,.62-1.34,1.6-2.06,1.39-1.03,4.79-2.99,7.72-3.6,1.55,0,3.09,.46,4.22,1.39,1.8,1.55,2.32,3.6,2.32,6.33v9.53c0,2.32,.93,3.09,1.8,3.09,.62,0,1.34-.26,1.85-.57l.52,1.34-4.38,2.63Zm-3.76-12.98c-1.08,.57-3.55,1.65-4.63,2.16-2.01,.93-3.14,1.91-3.14,3.81,0,2.63,2.06,3.91,3.66,3.91,1.34,0,3.14-.88,4.12-1.85v-8.03Z"/><path class="cls-1" d="M442.54,56.29c-1.13,.15-2.58,.46-3.97,.82-1.34,.36-2.63,.77-3.6,1.03l-.31-.31v-3.66c-1.18,.88-2.32,1.8-3.81,2.68-1.49,.88-2.58,1.29-3.97,1.29-3.45,0-6.39-2.11-6.39-7.67v-10.09c0-2.73-.41-2.99-1.7-3.3l-1.44-.31v-1.18c1.08-.05,2.37-.21,3.71-.36,1.39-.21,2.83-.41,3.66-.57-.15,1.6-.15,4.02-.15,7.47v6.95c0,4.58,2.21,5.82,4.53,5.82,1.85,0,3.81-.77,5.56-2.47v-12.05c0-2.73-.46-3.04-2.16-3.3l-1.85-.31v-1.18c1.39-.05,3.14-.21,4.63-.41,1.44-.15,2.68-.36,3.45-.52v17.2c0,2.58,.41,2.88,2.42,3.04l1.39,.05v1.34Z"/><path class="cls-1" d="M456.04,35.23c.93-.57,1.91-.82,2.52-.82,5.72,0,9.12,4.69,9.12,9.73,0,7.78-6.13,12.77-12.82,14.01-1.54-.05-2.88-.57-3.55-.93v6.75c0,3.91,.36,4.22,4.33,4.53v1.39h-12.15v-1.39c3.3-.31,3.76-.62,3.76-4.02v-23.28c0-3.35-.21-3.45-3.4-3.86v-1.24c2.16-.36,5.05-1.24,7.47-2.21v4.07l4.74-2.73Zm-4.74,18.38c1.13,1.18,3.04,2.01,4.84,2.01,4.33,0,7.21-3.71,7.21-9.48s-3.19-8.65-6.9-8.65c-1.65,0-3.76,1.13-5.15,2.21v13.9Z"/><path class="cls-1" d="M480.87,57.48c-.88,.46-1.65,.67-2.16,.67-3.24,0-5.05-2.06-5.05-6.13v-14.93h-3.55l-.21-.57,1.44-1.49h2.32v-3.71l3.35-3.45,.72,.1v7.06h5.82c.51,.57,.36,1.65-.31,2.06h-5.51v13.18c0,4.17,1.7,4.94,3.04,4.94s2.47-.52,3.14-.88l.46,1.34-3.5,1.8Z"/><path class="cls-1" d="M499.87,41.15c-1.03-3.09-2.78-5.1-5.3-5.1-2.01,0-3.35,1.49-3.35,3.55,0,2.27,2.06,3.45,4.33,4.43,3.91,1.6,6.54,3.45,6.54,7,0,4.69-4.38,7.11-8.5,7.11-2.63,0-5-.98-5.87-1.75-.36-.72-.88-4.22-.88-6.08l1.39-.26c.87,3.4,3.19,6.39,6.28,6.39,1.91,0,3.66-1.39,3.66-3.6s-1.49-3.5-4.07-4.69c-3.09-1.39-6.44-3.14-6.44-7.06,0-3.6,3.09-6.69,7.83-6.69,2.11,0,3.5,.46,4.53,.93,.46,1.13,1.03,4.22,1.13,5.46l-1.29,.36Z"/><path class="cls-1" d="M515.22,57.48c-.88,.46-1.65,.67-2.16,.67-3.24,0-5.05-2.06-5.05-6.13v-14.93h-3.55l-.21-.57,1.44-1.49h2.32v-3.71l3.35-3.45,.72,.1v7.06h5.82c.51,.57,.36,1.65-.31,2.06h-5.51v13.18c0,4.17,1.7,4.94,3.04,4.94s2.47-.52,3.14-.88l.46,1.34-3.5,1.8Z"/><path class="cls-1" d="M537.31,58.14c-.77,0-1.85-.46-2.42-1.03-.67-.67-.98-1.39-1.24-2.27-2.06,1.39-4.53,3.3-6.08,3.3-3.66,0-6.18-3.04-6.18-6.28,0-2.52,1.34-4.12,4.17-5.1,3.09-1.03,6.85-2.42,7.98-3.35v-.88c0-3.76-1.75-5.82-4.38-5.82-.98,0-1.75,.36-2.32,.98-.62,.72-1.08,1.85-1.49,3.4-.26,.82-.77,1.18-1.49,1.18-.93,0-2.21-.98-2.21-2.21,0-.72,.62-1.34,1.6-2.06,1.39-1.03,4.79-2.99,7.72-3.6,1.54,0,3.09,.46,4.22,1.39,1.8,1.55,2.32,3.6,2.32,6.33v9.53c0,2.32,.93,3.09,1.8,3.09,.62,0,1.34-.26,1.85-.57l.51,1.34-4.38,2.63Zm-3.76-12.98c-1.08,.57-3.55,1.65-4.63,2.16-2.01,.93-3.14,1.91-3.14,3.81,0,2.63,2.06,3.91,3.66,3.91,1.34,0,3.14-.88,4.12-1.85v-8.03Z"/><path class="cls-1" d="M568.63,56.19c-1.13,.21-5,.88-7.98,1.96v-3.35l-3.14,1.85c-2.06,1.18-3.45,1.49-4.02,1.49-4.12,0-9.53-3.76-9.53-10.97s6.23-12.77,13.24-12.77c.72,0,2.27,.15,3.45,.62v-7.36c0-3.35-.26-3.5-3.97-3.76v-1.29c2.68-.31,6.13-1.13,8.03-1.75v30.74c0,2.68,.36,2.94,2.27,3.14l1.65,.15v1.29Zm-7.98-17.2c-1.24-1.8-3.4-2.63-5.3-2.63-2.42,0-6.75,1.96-6.75,9.42,0,6.13,3.76,9.12,7.11,9.12,1.8,0,3.71-.82,4.94-1.75v-14.16Z"/><path class="cls-1" d="M580.42,57.48c-.88,.46-1.65,.67-2.16,.67-3.24,0-5.05-2.06-5.05-6.13v-14.93h-3.55l-.21-.57,1.44-1.49h2.32v-3.71l3.35-3.45,.72,.1v7.06h5.82c.51,.57,.36,1.65-.31,2.06h-5.51v13.18c0,4.17,1.7,4.94,3.04,4.94s2.47-.52,3.14-.88l.46,1.34-3.5,1.8Z"/><path class="cls-1" d="M237.15,79.95c6.54,0,11.33,1.29,14.52,4.38,2.57,2.47,4.38,6.23,4.38,11.07,0,6.18-2.42,10.76-6.33,13.75-3.86,2.99-9.01,4.27-15.29,4.27h-12.15v-1.39c4.43-.31,4.84-.62,4.84-5v-20.7c0-4.43-.41-4.64-4.38-4.94v-1.44h14.42Zm-5.66,26.73c0,3.91,1.7,4.89,5.46,4.89,9.58,0,14.06-7.21,14.06-15.45,0-5.3-1.96-9.94-6.08-12.36-2.32-1.44-5.3-2.11-8.75-2.11-2.16,0-3.5,.26-4.02,.67-.46,.31-.67,.88-.67,2.94v21.42Z"/><path class="cls-1" d="M285.3,112.19c-1.13,.16-2.58,.46-3.97,.82-1.34,.36-2.63,.77-3.6,1.03l-.31-.31v-3.66c-1.18,.88-2.32,1.8-3.81,2.68-1.49,.88-2.57,1.29-3.97,1.29-3.45,0-6.39-2.11-6.39-7.67v-10.09c0-2.73-.41-3.04-1.7-3.3l-1.44-.31v-1.24c1.08-.05,2.37-.15,3.71-.31,1.39-.21,2.83-.41,3.66-.57-.15,1.6-.15,4.02-.15,7.47v6.95c0,4.58,2.21,5.82,4.53,5.82,1.85,0,3.81-.77,5.56-2.47v-12.05c0-2.73-.46-3.04-2.16-3.3l-1.85-.31v-1.24c1.39-.05,3.14-.21,4.63-.36,1.44-.15,2.68-.36,3.45-.51v17.2c0,2.58,.41,2.88,2.42,3.04l1.39,.05v1.34Zm-20.19-28.99c0-1.44,1.13-2.52,2.47-2.52s2.42,1.08,2.42,2.52c0,1.34-1.03,2.47-2.47,2.47-1.29,0-2.42-1.13-2.42-2.47Zm8.65,.05c0-1.44,1.13-2.57,2.52-2.57s2.37,1.13,2.37,2.57c0,1.34-1.03,2.47-2.42,2.47s-2.47-1.13-2.47-2.47Z"/><path class="cls-1" d="M300.96,97.05c-1.03-3.09-2.78-5.1-5.3-5.1-2.01,0-3.35,1.49-3.35,3.55,0,2.27,2.06,3.45,4.33,4.43,3.91,1.6,6.54,3.45,6.54,7,0,4.69-4.38,7.11-8.5,7.11-2.63,0-5-.98-5.87-1.75-.36-.72-.88-4.22-.88-6.08l1.39-.26c.88,3.4,3.19,6.39,6.28,6.39,1.91,0,3.66-1.39,3.66-3.61s-1.49-3.5-4.07-4.69c-3.09-1.39-6.44-3.14-6.44-7.05,0-3.61,3.09-6.7,7.83-6.7,2.11,0,3.5,.46,4.53,.93,.46,1.13,1.03,4.22,1.13,5.46l-1.29,.36Z"/><path class="cls-1" d="M319.6,97.05c-1.03-3.09-2.78-5.1-5.3-5.1-2.01,0-3.35,1.49-3.35,3.55,0,2.27,2.06,3.45,4.33,4.43,3.91,1.6,6.54,3.45,6.54,7,0,4.69-4.38,7.11-8.5,7.11-2.63,0-5-.98-5.87-1.75-.36-.72-.88-4.22-.88-6.08l1.39-.26c.88,3.4,3.19,6.39,6.28,6.39,1.91,0,3.66-1.39,3.66-3.61s-1.49-3.5-4.07-4.69c-3.09-1.39-6.44-3.14-6.44-7.05,0-3.61,3.09-6.7,7.83-6.7,2.11,0,3.5,.46,4.53,.93,.46,1.13,1.03,4.22,1.13,5.46l-1.29,.36Z"/><path class="cls-1" d="M344.12,109.1c-3.24,4.02-6.8,4.94-8.39,4.94-6.33,0-10.04-5.15-10.04-10.97,0-3.5,1.29-6.69,3.4-9.01,2.11-2.32,4.89-3.76,7.52-3.76h.05c4.27,0,7.73,3.86,7.73,7.83,0,1.03-.21,1.44-1.18,1.65-.82,.16-7.31,.67-13.49,.88,.05,7,4.12,9.89,7.72,9.89,2.11,0,4.02-.82,5.92-2.58l.77,1.13Zm-14.16-10.56c2.88,0,5.77-.05,8.75-.15,.93,0,1.24-.26,1.24-1.03,.05-2.68-1.7-5.15-4.58-5.15-2.32,0-4.63,2.16-5.41,6.33Z"/><path class="cls-1" d="M346.23,113.42v-1.34c3.24-.31,3.71-.62,3.71-4.02v-24.36c0-3.5-.31-3.6-3.55-3.91v-1.24c2.68-.31,5.87-1.18,7.62-1.8v31.31c0,3.4,.41,3.71,3.71,4.02v1.34h-11.48Z"/><path class="cls-1" d="M385.11,112.09c-1.13,.21-5,.88-7.98,1.96v-3.35l-3.14,1.85c-2.06,1.18-3.45,1.49-4.02,1.49-4.12,0-9.53-3.76-9.53-10.97s6.23-12.77,13.23-12.77c.72,0,2.27,.15,3.45,.62v-7.36c0-3.35-.26-3.5-3.97-3.76v-1.29c2.68-.31,6.13-1.13,8.03-1.75v30.75c0,2.68,.36,2.93,2.27,3.14l1.65,.16v1.29Zm-7.98-17.2c-1.24-1.8-3.4-2.63-5.3-2.63-2.42,0-6.75,1.96-6.75,9.42,0,6.13,3.76,9.12,7.11,9.12,1.8,0,3.71-.82,4.94-1.75v-14.16Z"/><path class="cls-1" d="M410.04,101.79c0,8.29-6.08,12.26-11.18,12.26-7.06,0-11.28-5.67-11.28-11.38,0-8.5,6.59-12.36,11.33-12.36,6.39,0,11.12,5.15,11.12,11.48Zm-17.66-.77c0,6.49,2.78,11.33,7.06,11.33,3.19,0,5.82-2.37,5.82-9.42,0-5.97-2.42-10.92-7-10.92-3.09,0-5.87,3.19-5.87,9.01Z"/><path class="cls-1" d="M420.76,95.81c1.54-2.63,3.76-5.51,6.23-5.51,1.75,0,2.99,1.39,2.99,2.58,0,1.03-.67,2.06-1.65,2.52-.62,.26-1.03,.21-1.34-.1-.77-.72-1.39-1.03-2.21-1.03-1.34,0-2.99,1.49-4.12,4.38v9.42c0,3.4,.26,3.71,4.22,4.02v1.34h-11.84v-1.34c3.19-.31,3.55-.62,3.55-4.02v-10.66c0-3.4-.21-3.61-3.19-3.97v-1.18c2.52-.41,4.79-1.03,7.26-2.06v5.61h.1Z"/><path class="cls-1" d="M435.95,90.92v-1.08c0-1.65,.21-3.14,.57-4.27,.36-1.13,1.18-3.71,3.97-6.08,1.85-1.54,3.66-2.47,5.66-2.73,1.75,.1,3.24,.77,4.07,1.75,.46,.57,.51,1.18,.26,1.8-.15,.41-.46,.82-.98,1.24-.46,.36-.93,.36-1.39-.15-.98-.98-2.47-1.91-4.17-1.91-1.34,0-2.16,.62-2.73,1.49-.67,1.03-1.24,3.5-1.18,7.88v2.06h6.08c.31,.46,.05,1.7-.51,2.06h-5.56v14.78c0,3.81,.36,3.97,4.43,4.38v1.29h-12.15v-1.34c3.3-.31,3.66-.57,3.66-3.97v-15.14h-3.6l-.21-.57,1.39-1.49h2.42Z"/></g></svg>