<?xml version="1.0" encoding="UTF-8"?>
<svg xmlns="http://www.w3.org/2000/svg" xmlns:xlink="http://www.w3.org/1999/xlink" width="50px" height="40px" viewBox="0 0 50 50" version="1.1">
<g id="surface1">
<path style=" stroke:none;fill-rule:nonzero;fill:rgb(10.196078%,10.196078%,10.196078%);fill-opacity:1;" d="M 8.382812 25 C 12.464844 30.636719 18.734375 34.449219 25 34.363281 C 31.265625 34.449219 37.535156 30.636719 41.617188 25 C 37.535156 19.363281 31.265625 15.550781 25 15.636719 C 18.734375 15.550781 12.464844 19.363281 8.382812 25 Z M 10.921875 25 C 14.59375 20.554688 19.796875 17.796875 25 17.84375 C 30.203125 17.796875 35.40625 20.554688 39.078125 25 C 35.40625 29.445312 30.203125 32.203125 25 32.15625 C 19.796875 32.203125 14.59375 29.445312 10.921875 25 Z M 10.921875 25 "/>
<path style=" stroke:none;fill-rule:nonzero;fill:rgb(10.196078%,10.196078%,10.196078%);fill-opacity:1;" d="M 25 17.011719 C 20.589844 17.011719 17.011719 20.589844 17.011719 25 C 17.011719 29.410156 20.589844 32.988281 25 32.988281 C 29.410156 32.988281 32.988281 29.410156 32.988281 25 C 32.988281 20.589844 29.410156 17.011719 25 17.011719 Z M 25 31.058594 C 21.652344 31.058594 18.941406 28.347656 18.941406 25 C 18.941406 21.652344 21.652344 18.941406 25 18.941406 C 28.347656 18.941406 31.058594 21.652344 31.058594 25 C 31.058594 28.347656 28.347656 31.058594 25 31.058594 Z M 25 31.058594 "/>
<path style=" stroke:none;fill-rule:nonzero;fill:rgb(10.196078%,10.196078%,10.196078%);fill-opacity:1;" d="M 25 21.675781 C 24.835938 21.675781 24.675781 21.6875 24.515625 21.710938 C 24.695312 21.972656 24.800781 22.292969 24.800781 22.636719 C 24.800781 23.554688 24.054688 24.300781 23.136719 24.300781 C 22.652344 24.300781 22.21875 24.089844 21.914062 23.761719 C 21.761719 24.144531 21.675781 24.5625 21.675781 25 C 21.675781 26.835938 23.164062 28.324219 25 28.324219 C 26.835938 28.324219 28.324219 26.835938 28.324219 25 C 28.324219 23.164062 26.835938 21.675781 25 21.675781 Z M 25 21.675781 "/>
</g>
</svg>
