<?xml version="1.0" encoding="UTF-8"?><svg id="Ebene_1" xmlns="http://www.w3.org/2000/svg" viewBox="0 0 663.67 134.59"><defs><style>.cls-1{fill:#009fe3;}.cls-2{fill:#e30018;}</style></defs><path class="cls-2" d="M0,56.39V1.77H19.8c4.11,0,7.85,.63,11.21,1.89,3.36,1.26,6.25,3.07,8.67,5.43,2.41,2.36,4.28,5.24,5.58,8.63,1.31,3.39,1.97,7.19,1.97,11.4s-.66,8-1.97,11.36c-1.31,3.36-3.17,6.23-5.58,8.59-2.42,2.36-5.32,4.18-8.71,5.43-3.39,1.26-7.14,1.89-11.25,1.89H0Zm19.26-11.48c2.11,0,4.08-.31,5.93-.92,1.85-.61,3.47-1.56,4.86-2.85,1.39-1.28,2.48-2.93,3.27-4.93,.8-2,1.19-4.36,1.19-7.09s-.4-5.08-1.19-7.09c-.8-2-1.89-3.66-3.27-4.97-1.39-1.31-3.01-2.27-4.86-2.89-1.85-.61-3.82-.92-5.93-.92h-7.09v31.66h7.09Z"/><path class="cls-2" d="M80.04,56.39c-.1-.36-.18-.96-.23-1.81-.05-.85-.08-1.53-.08-2.04-1.02,1.65-2.5,2.84-4.43,3.58-1.92,.74-3.87,1.12-5.82,1.12-2.31,0-4.38-.4-6.2-1.19-1.82-.79-3.35-1.87-4.58-3.23-1.23-1.36-2.17-2.94-2.81-4.74-.64-1.8-.96-3.72-.96-5.78V18.11h11.71v21.72c0,1.85,.5,3.42,1.5,4.7,1,1.29,2.55,1.93,4.66,1.93,1.95,0,3.5-.61,4.66-1.81,1.16-1.21,1.73-2.78,1.73-4.74V18.11h11.71v31.43c0,1.75,.05,3.25,.15,4.5,.1,1.26,.18,2.04,.23,2.35h-11.25ZM58.86,7.71c0-1.64,.56-3.04,1.7-4.2,1.13-1.16,2.52-1.73,4.16-1.73s3.04,.58,4.2,1.73c1.15,1.15,1.73,2.55,1.73,4.2s-.58,3.03-1.73,4.16c-1.16,1.13-2.56,1.7-4.2,1.7s-3.03-.56-4.16-1.7c-1.13-1.13-1.7-2.51-1.7-4.16Zm17.03,0c0-1.64,.56-3.04,1.69-4.2,1.13-1.16,2.52-1.73,4.16-1.73s3.04,.58,4.2,1.73c1.15,1.15,1.73,2.55,1.73,4.2s-.58,3.03-1.73,4.16c-1.16,1.13-2.55,1.7-4.2,1.7s-3.03-.56-4.16-1.7c-1.13-1.13-1.69-2.51-1.69-4.16Z"/><path class="cls-2" d="M108.47,43.76c.1,1.34,.63,2.53,1.58,3.58,.95,1.05,2.43,1.58,4.43,1.58,1.49,0,2.6-.33,3.35-1,.74-.67,1.12-1.44,1.12-2.31,0-.72-.27-1.35-.81-1.89-.54-.54-1.53-.96-2.97-1.27l-4.39-1c-2.05-.46-3.8-1.08-5.24-1.85-1.44-.77-2.62-1.67-3.54-2.7-.92-1.02-1.6-2.16-2-3.39-.41-1.23-.62-2.52-.62-3.85,0-1.75,.36-3.39,1.08-4.93,.72-1.54,1.73-2.89,3.04-4.04,1.31-1.16,2.86-2.07,4.66-2.73,1.8-.67,3.77-1,5.93-1,2.77,0,5.11,.39,7.01,1.16,1.9,.77,3.45,1.73,4.66,2.89,1.21,1.16,2.09,2.39,2.66,3.7,.56,1.31,.9,2.53,1,3.66l-9.71,1.77c-.15-1.29-.66-2.39-1.5-3.31-.85-.92-2.17-1.39-3.97-1.39-1.13,0-2.11,.3-2.93,.89-.82,.59-1.23,1.4-1.23,2.43,0,.82,.28,1.46,.85,1.93,.56,.46,1.29,.77,2.16,.92l5.08,1c4.01,.82,6.97,2.33,8.9,4.51,1.92,2.18,2.89,4.69,2.89,7.51,0,1.64-.31,3.23-.92,4.78-.62,1.54-1.57,2.91-2.85,4.12-1.28,1.21-2.87,2.18-4.77,2.93-1.9,.75-4.13,1.12-6.7,1.12-3.03,0-5.56-.43-7.59-1.27-2.03-.85-3.66-1.89-4.89-3.12-1.23-1.23-2.14-2.54-2.73-3.93-.59-1.39-.91-2.62-.96-3.7l9.94-1.77Z"/><path class="cls-2" d="M145.44,43.76c.1,1.34,.63,2.53,1.58,3.58,.95,1.05,2.43,1.58,4.43,1.58,1.49,0,2.6-.33,3.35-1,.74-.67,1.12-1.44,1.12-2.31,0-.72-.27-1.35-.81-1.89-.54-.54-1.53-.96-2.97-1.27l-4.39-1c-2.05-.46-3.8-1.08-5.24-1.85-1.44-.77-2.62-1.67-3.54-2.7-.92-1.02-1.6-2.16-2-3.39-.41-1.23-.62-2.52-.62-3.85,0-1.75,.36-3.39,1.08-4.93,.72-1.54,1.73-2.89,3.04-4.04,1.31-1.16,2.86-2.07,4.66-2.73,1.8-.67,3.77-1,5.93-1,2.77,0,5.11,.39,7.01,1.16,1.9,.77,3.45,1.73,4.66,2.89,1.21,1.16,2.09,2.39,2.66,3.7,.56,1.31,.9,2.53,1,3.66l-9.71,1.77c-.15-1.29-.66-2.39-1.5-3.31-.85-.92-2.17-1.39-3.97-1.39-1.13,0-2.11,.3-2.93,.89-.82,.59-1.23,1.4-1.23,2.43,0,.82,.28,1.46,.85,1.93,.56,.46,1.29,.77,2.16,.92l5.08,1c4.01,.82,6.97,2.33,8.9,4.51,1.92,2.18,2.89,4.69,2.89,7.51,0,1.64-.31,3.23-.92,4.78-.62,1.54-1.57,2.91-2.85,4.12-1.28,1.21-2.87,2.18-4.77,2.93-1.9,.75-4.13,1.12-6.7,1.12-3.03,0-5.56-.43-7.59-1.27-2.03-.85-3.66-1.89-4.89-3.12-1.23-1.23-2.14-2.54-2.73-3.93-.59-1.39-.91-2.62-.96-3.7l9.94-1.77Z"/><path class="cls-2" d="M210.23,45.38c-.46,1.64-1.18,3.21-2.16,4.7-.98,1.49-2.21,2.79-3.7,3.89-1.49,1.1-3.22,1.98-5.2,2.62-1.98,.64-4.17,.97-6.59,.97-2.62,0-5.14-.46-7.55-1.39-2.41-.92-4.54-2.26-6.39-4.01-1.85-1.74-3.31-3.88-4.39-6.39-1.08-2.52-1.62-5.39-1.62-8.63s.53-5.87,1.58-8.36c1.05-2.49,2.46-4.61,4.23-6.36,1.77-1.75,3.81-3.09,6.13-4.04,2.31-.95,4.7-1.43,7.17-1.43,5.96,0,10.64,1.72,14.06,5.16,3.41,3.44,5.12,8.27,5.12,14.48,0,.82-.03,1.6-.08,2.35-.05,.74-.1,1.17-.15,1.27h-26.65c.05,1.08,.32,2.07,.81,2.97,.49,.9,1.13,1.68,1.92,2.35,.8,.67,1.71,1.18,2.74,1.54,1.02,.36,2.1,.54,3.23,.54,2.16,0,3.84-.46,5.05-1.39s2.09-2.13,2.66-3.62l9.78,2.77Zm-10.63-12.71c-.05-.72-.22-1.46-.5-2.23-.29-.77-.73-1.46-1.35-2.08-.62-.61-1.4-1.13-2.35-1.54-.95-.41-2.12-.62-3.5-.62-1.23,0-2.31,.21-3.23,.62-.92,.41-1.71,.92-2.35,1.54-.64,.62-1.13,1.31-1.46,2.08-.34,.77-.53,1.51-.58,2.23h15.33Z"/><path class="cls-2" d="M218.7,56.39V.62h11.71V56.39h-11.71Z"/><path class="cls-2" d="M278.56,49.54c0,1.75,.04,3.22,.12,4.43,.08,1.21,.14,2.02,.19,2.43h-11.25c-.05-.26-.12-.74-.19-1.46-.08-.72-.12-1.46-.12-2.23-.87,1.34-2.22,2.43-4.04,3.28-1.82,.85-3.89,1.27-6.2,1.27-2.72,0-5.24-.5-7.55-1.5-2.31-1-4.31-2.39-6.01-4.16-1.7-1.77-3.02-3.89-3.97-6.36-.95-2.46-1.42-5.16-1.42-8.09s.46-5.46,1.39-7.9c.92-2.44,2.21-4.56,3.85-6.36,1.64-1.8,3.6-3.19,5.86-4.2,2.26-1,4.75-1.5,7.47-1.5,1.64,0,3.05,.14,4.24,.42,1.18,.28,2.18,.62,3.01,1,.82,.39,1.47,.81,1.96,1.27,.49,.46,.86,.87,1.12,1.23V.62h11.55V49.54Zm-28.66-12.33c0,1.59,.23,2.98,.69,4.16,.46,1.18,1.09,2.17,1.89,2.97,.8,.8,1.72,1.4,2.77,1.81,1.05,.41,2.14,.62,3.27,.62s2.22-.2,3.28-.62c1.05-.41,1.98-1.01,2.77-1.81,.79-.8,1.42-1.78,1.89-2.97,.46-1.18,.69-2.57,.69-4.16s-.23-2.98-.69-4.16c-.46-1.18-1.09-2.17-1.89-2.97-.8-.8-1.72-1.39-2.77-1.77-1.05-.39-2.14-.58-3.28-.58s-2.22,.19-3.27,.58c-1.05,.39-1.98,.98-2.77,1.77-.8,.8-1.42,1.79-1.89,2.97-.46,1.18-.69,2.57-.69,4.16Z"/><path class="cls-2" d="M306.68,16.95c2.87,0,5.55,.5,8.01,1.5,2.46,1,4.61,2.4,6.43,4.2,1.82,1.8,3.26,3.93,4.31,6.4,1.05,2.46,1.58,5.19,1.58,8.17s-.53,5.71-1.58,8.2c-1.05,2.49-2.49,4.64-4.31,6.43-1.82,1.8-3.97,3.2-6.43,4.2-2.47,1-5.14,1.5-8.01,1.5s-5.55-.5-8.01-1.5c-2.47-1-4.61-2.4-6.43-4.2-1.82-1.8-3.26-3.94-4.31-6.43-1.05-2.49-1.58-5.23-1.58-8.2s.53-5.7,1.58-8.17c1.05-2.47,2.49-4.6,4.31-6.4,1.82-1.8,3.97-3.2,6.43-4.2,2.46-1,5.13-1.5,8.01-1.5Zm0,29.81c1.13,0,2.21-.19,3.23-.58,1.03-.39,1.94-.98,2.73-1.77,.8-.79,1.44-1.78,1.93-2.97,.49-1.18,.73-2.59,.73-4.23s-.24-2.99-.73-4.2c-.49-1.21-1.13-2.19-1.93-2.97-.8-.77-1.7-1.35-2.73-1.73-1.03-.39-2.11-.58-3.23-.58s-2.14,.19-3.2,.58c-1.05,.39-1.98,.96-2.77,1.73-.8,.77-1.44,1.76-1.92,2.97-.49,1.21-.73,2.61-.73,4.2s.24,2.99,.73,4.2c.49,1.21,1.13,2.21,1.92,3,.8,.8,1.72,1.39,2.77,1.77,1.05,.39,2.12,.58,3.2,.58Z"/><path class="cls-2" d="M359.06,29.66c-.67-.15-1.31-.26-1.93-.31-.61-.05-1.21-.08-1.77-.08-1.18,0-2.31,.18-3.39,.54-1.08,.36-2.03,.95-2.85,1.77-.83,.82-1.48,1.9-1.97,3.23-.49,1.34-.73,2.95-.73,4.85v16.72h-11.71V18.11h11.33v5.16c.51-1.08,1.17-1.97,1.96-2.7,.8-.72,1.66-1.28,2.58-1.7,.92-.41,1.86-.7,2.81-.88,.95-.18,1.81-.27,2.58-.27,1.18,0,2.21,.13,3.08,.39v11.55Z"/><path class="cls-2" d="M380.86,27.96v28.43h-11.71V27.96h-6.08v-9.86h6.08v-3.31c0-2.21,.32-4.21,.97-6.01,.64-1.8,1.59-3.35,2.85-4.66,1.26-1.31,2.8-2.32,4.62-3.04,1.82-.72,3.89-1.08,6.2-1.08,1.18,0,2.26,.08,3.23,.23,.98,.15,1.75,.36,2.31,.62V10.4c-.31-.1-.73-.19-1.27-.27-.54-.08-1.27-.12-2.2-.12-.51,0-1.07,.07-1.66,.19-.59,.13-1.13,.39-1.62,.77-.49,.39-.9,.92-1.23,1.58-.33,.67-.5,1.54-.5,2.62v2.93h8.32v9.86h-8.32Z"/><path class="cls-1" d="M34.59,133.43L12.1,97.53v35.9H0v-54.62H14.79l20.49,33.2v-33.2h12.17v54.62h-12.86Z"/><path class="cls-1" d="M55.93,122.88c0-1.7,.29-3.21,.89-4.54,.59-1.34,1.4-2.48,2.43-3.43,1.03-.95,2.22-1.72,3.58-2.31,1.36-.59,2.84-1.01,4.43-1.27l9.01-1.39c1.03-.15,1.75-.46,2.16-.92,.41-.46,.61-1.03,.61-1.69,0-1.13-.48-2.11-1.43-2.93s-2.35-1.23-4.2-1.23c-2.05,0-3.63,.58-4.74,1.73-1.11,1.15-1.71,2.45-1.81,3.89l-10.17-2.08c.1-1.39,.51-2.82,1.23-4.31,.72-1.49,1.76-2.85,3.12-4.08,1.36-1.23,3.07-2.26,5.12-3.08,2.05-.82,4.49-1.23,7.32-1.23,3.08,0,5.7,.4,7.86,1.19,2.16,.8,3.92,1.87,5.28,3.23,1.36,1.36,2.34,2.94,2.93,4.74,.59,1.8,.88,3.67,.88,5.62v18.72c0,1.49,.07,2.8,.19,3.93,.13,1.13,.22,1.8,.27,2h-10.55c-.05-.15-.13-.58-.23-1.27-.1-.69-.15-1.71-.15-3.04-1.03,1.64-2.44,2.95-4.24,3.93-1.8,.97-3.98,1.46-6.55,1.46-2.11,0-3.98-.32-5.62-.96-1.64-.64-3.03-1.5-4.16-2.58-1.13-1.08-1.99-2.31-2.58-3.7-.59-1.39-.89-2.85-.89-4.39Zm3.39-38.13c0-1.64,.56-3.04,1.69-4.2,1.13-1.16,2.52-1.73,4.16-1.73s3.04,.58,4.2,1.73c1.15,1.15,1.73,2.55,1.73,4.2s-.58,3.03-1.73,4.16c-1.16,1.13-2.55,1.7-4.2,1.7s-3.03-.56-4.16-1.7c-1.13-1.13-1.69-2.51-1.69-4.16Zm12.71,41.29c.87,0,1.73-.12,2.58-.35,.85-.23,1.59-.64,2.23-1.23,.64-.59,1.17-1.37,1.58-2.35,.41-.97,.61-2.21,.61-3.7v-1.7l-7.24,1.16c-1.23,.2-2.26,.63-3.08,1.27s-1.23,1.63-1.23,2.96c0,1.03,.34,1.94,1.04,2.74,.7,.8,1.86,1.19,3.51,1.19Zm4.31-41.29c0-1.64,.56-3.04,1.7-4.2,1.13-1.16,2.51-1.73,4.16-1.73s3.04,.58,4.2,1.73c1.16,1.15,1.73,2.55,1.73,4.2s-.58,3.03-1.73,4.16c-1.16,1.13-2.55,1.7-4.2,1.7s-3.03-.56-4.16-1.7c-1.13-1.13-1.7-2.51-1.7-4.16Z"/><path class="cls-1" d="M111.7,133.43h-11.71v-55.78h11.71v19.95c1.18-1.18,2.68-2.05,4.51-2.62,1.82-.57,3.58-.85,5.28-.85,2.51,0,4.68,.4,6.51,1.19,1.82,.8,3.33,1.89,4.51,3.28,1.18,1.39,2.05,3,2.62,4.85,.56,1.85,.85,3.83,.85,5.93v24.04h-11.71v-22.03c0-1.9-.5-3.48-1.5-4.74-1-1.26-2.58-1.89-4.74-1.89-1.85,0-3.34,.58-4.47,1.73-1.13,1.15-1.75,2.63-1.85,4.43v22.49Z"/><path class="cls-1" d="M180.88,122.41c-.46,1.64-1.18,3.21-2.16,4.7-.98,1.49-2.21,2.79-3.7,3.89-1.49,1.1-3.22,1.98-5.2,2.62-1.98,.64-4.17,.96-6.59,.96-2.62,0-5.14-.46-7.55-1.39-2.41-.92-4.55-2.26-6.39-4.01-1.85-1.74-3.31-3.88-4.39-6.39-1.08-2.52-1.62-5.39-1.62-8.63s.53-5.87,1.58-8.36c1.05-2.49,2.46-4.61,4.23-6.36,1.77-1.75,3.81-3.09,6.12-4.04,2.31-.95,4.7-1.43,7.17-1.43,5.96,0,10.64,1.72,14.06,5.16,3.41,3.44,5.12,8.27,5.12,14.48,0,.82-.02,1.61-.08,2.35-.05,.74-.1,1.17-.15,1.27h-26.65c.05,1.08,.32,2.07,.81,2.96,.49,.9,1.13,1.68,1.92,2.35,.8,.67,1.71,1.18,2.74,1.54,1.02,.36,2.1,.54,3.23,.54,2.16,0,3.84-.46,5.05-1.39,1.21-.92,2.09-2.13,2.66-3.62l9.78,2.77Zm-10.63-12.71c-.05-.72-.22-1.46-.5-2.23-.29-.77-.73-1.46-1.35-2.08-.62-.61-1.4-1.13-2.35-1.54-.95-.41-2.12-.62-3.5-.62-1.23,0-2.31,.21-3.23,.62-.92,.41-1.71,.92-2.35,1.54-.64,.62-1.13,1.31-1.46,2.08-.34,.77-.53,1.51-.58,2.23h15.33Z"/><path class="cls-1" d="M220.79,95.14h7.47v10.24h-7.47v14.33c0,1.59,.38,2.66,1.15,3.2,.77,.54,1.8,.81,3.08,.81,.62,0,1.19-.04,1.73-.11,.54-.08,.99-.17,1.35-.27v9.7c-.26,.1-.87,.31-1.85,.62-.98,.31-2.39,.46-4.24,.46-4.01,0-7.14-1.09-9.4-3.27-2.26-2.18-3.39-5.2-3.39-9.05v-16.41h-6.78v-10.24h1.92c2,0,3.49-.59,4.47-1.77,.98-1.18,1.46-2.67,1.46-4.47v-4.93h10.48v11.17Z"/><path class="cls-1" d="M260.54,106.7c-.67-.15-1.31-.26-1.93-.31-.61-.05-1.21-.08-1.77-.08-1.18,0-2.31,.18-3.39,.54-1.08,.36-2.03,.95-2.85,1.77-.82,.82-1.48,1.9-1.97,3.24-.49,1.33-.73,2.95-.73,4.85v16.72h-11.71v-38.29h11.33v5.16c.51-1.08,1.17-1.97,1.96-2.7,.8-.72,1.66-1.28,2.58-1.7,.92-.41,1.86-.71,2.81-.88,.95-.18,1.81-.27,2.58-.27,1.18,0,2.21,.13,3.08,.39v11.55Z"/><path class="cls-1" d="M266.08,83.43c0-.92,.18-1.81,.54-2.66,.36-.85,.85-1.58,1.46-2.19,.62-.62,1.33-1.1,2.16-1.46,.82-.36,1.7-.54,2.62-.54,1.95,0,3.6,.67,4.93,2,1.33,1.34,2,2.95,2,4.85s-.67,3.52-2,4.85c-1.34,1.34-2.98,2-4.93,2-.92,0-1.8-.18-2.62-.54-.82-.36-1.54-.85-2.16-1.46-.61-.61-1.1-1.35-1.46-2.19-.36-.85-.54-1.73-.54-2.66Zm1,50v-38.29h11.71v38.29h-11.71Z"/><path class="cls-1" d="M329.1,105v28.43h-11.71v-28.43h-13.48v28.43h-11.71v-28.43h-6.08v-9.86h6.08v-3.31c0-2.21,.32-4.21,.97-6.01,.64-1.8,1.59-3.35,2.85-4.66,1.26-1.31,2.8-2.32,4.62-3.04,1.82-.72,3.89-1.08,6.2-1.08,.97,0,2,.08,3.08,.23,1.08,.15,1.9,.36,2.46,.62v9.55c-.31-.1-.74-.19-1.31-.27-.56-.08-1.28-.12-2.16-.12-.51,0-1.07,.07-1.66,.19-.59,.13-1.13,.37-1.62,.73-.49,.36-.9,.85-1.23,1.46-.34,.62-.5,1.41-.5,2.39v3.31h13.48v-3.31c0-2.21,.32-4.21,.96-6.01,.64-1.8,1.59-3.35,2.85-4.66,1.26-1.31,2.79-2.32,4.58-3.04,1.8-.72,3.85-1.08,6.17-1.08,1.02,0,2.08,.07,3.16,.19,1.08,.13,1.9,.32,2.47,.58v9.63c-.31-.1-.75-.19-1.31-.27-.57-.08-1.29-.12-2.16-.12-.51,0-1.07,.07-1.66,.19-.59,.13-1.13,.37-1.62,.73-.49,.36-.9,.85-1.23,1.46-.33,.62-.5,1.41-.5,2.39v3.31h8.32v9.86h-8.32Z"/><path class="cls-1" d="M358.69,95.14h7.47v10.24h-7.47v14.33c0,1.59,.38,2.66,1.15,3.2,.77,.54,1.8,.81,3.08,.81,.62,0,1.19-.04,1.73-.11,.54-.08,.99-.17,1.35-.27v9.7c-.26,.1-.87,.31-1.85,.62-.98,.31-2.39,.46-4.24,.46-4.01,0-7.14-1.09-9.4-3.27-2.26-2.18-3.39-5.2-3.39-9.05v-16.41h-6.78v-10.24h1.92c2,0,3.49-.59,4.47-1.77,.97-1.18,1.46-2.67,1.46-4.47v-4.93h10.48v11.17Z"/><path class="cls-1" d="M393.2,133.43v-54.62h35.21v11.55h-23.03v11.55h20.26v11.09h-20.18v20.42h-12.25Z"/><path class="cls-1" d="M458.68,106.7c-.67-.15-1.31-.26-1.93-.31-.61-.05-1.21-.08-1.77-.08-1.18,0-2.31,.18-3.39,.54-1.08,.36-2.03,.95-2.85,1.77-.83,.82-1.48,1.9-1.97,3.24-.49,1.33-.73,2.95-.73,4.85v16.72h-11.71v-38.29h11.33v5.16c.51-1.08,1.17-1.97,1.96-2.7,.8-.72,1.66-1.28,2.58-1.7,.92-.41,1.86-.71,2.81-.88,.95-.18,1.81-.27,2.58-.27,1.18,0,2.21,.13,3.08,.39v11.55Z"/><path class="cls-1" d="M500.28,122.41c-.46,1.64-1.18,3.21-2.16,4.7-.98,1.49-2.21,2.79-3.7,3.89-1.49,1.1-3.22,1.98-5.2,2.62-1.98,.64-4.17,.96-6.59,.96-2.62,0-5.14-.46-7.55-1.39-2.41-.92-4.54-2.26-6.39-4.01-1.85-1.74-3.31-3.88-4.39-6.39-1.08-2.52-1.62-5.39-1.62-8.63s.53-5.87,1.58-8.36c1.05-2.49,2.46-4.61,4.23-6.36,1.77-1.75,3.82-3.09,6.13-4.04,2.31-.95,4.7-1.43,7.17-1.43,5.96,0,10.64,1.72,14.06,5.16,3.41,3.44,5.12,8.27,5.12,14.48,0,.82-.03,1.61-.08,2.35-.05,.74-.1,1.17-.15,1.27h-26.65c.05,1.08,.32,2.07,.81,2.96,.49,.9,1.13,1.68,1.92,2.35,.8,.67,1.71,1.18,2.74,1.54,1.02,.36,2.1,.54,3.23,.54,2.16,0,3.84-.46,5.05-1.39,1.21-.92,2.09-2.13,2.66-3.62l9.78,2.77Zm-10.63-12.71c-.05-.72-.22-1.46-.5-2.23-.29-.77-.73-1.46-1.35-2.08-.62-.61-1.4-1.13-2.35-1.54-.95-.41-2.12-.62-3.5-.62-1.23,0-2.31,.21-3.24,.62-.92,.41-1.71,.92-2.35,1.54-.64,.62-1.13,1.31-1.46,2.08-.34,.77-.53,1.51-.58,2.23h15.33Z"/><path class="cls-1" d="M507.75,83.43c0-.92,.18-1.81,.54-2.66,.36-.85,.85-1.58,1.46-2.19,.62-.62,1.34-1.1,2.16-1.46,.82-.36,1.7-.54,2.62-.54,1.95,0,3.6,.67,4.93,2s2,2.95,2,4.85-.67,3.52-2,4.85c-1.33,1.34-2.98,2-4.93,2-.92,0-1.8-.18-2.62-.54-.82-.36-1.54-.85-2.16-1.46-.61-.61-1.1-1.35-1.46-2.19-.36-.85-.54-1.73-.54-2.66Zm1,50v-38.29h11.71v38.29h-11.71Z"/><path class="cls-1" d="M542.03,133.43h-11.71v-55.78h11.71v19.95c1.18-1.18,2.68-2.05,4.51-2.62,1.82-.57,3.58-.85,5.28-.85,2.51,0,4.68,.4,6.51,1.19,1.82,.8,3.33,1.89,4.51,3.28,1.18,1.39,2.05,3,2.62,4.85,.56,1.85,.85,3.83,.85,5.93v24.04h-11.71v-22.03c0-1.9-.5-3.48-1.5-4.74-1-1.26-2.58-1.89-4.74-1.89-1.85,0-3.34,.58-4.47,1.73-1.13,1.15-1.75,2.63-1.85,4.43v22.49Z"/><path class="cls-1" d="M611.21,122.41c-.46,1.64-1.18,3.21-2.16,4.7-.98,1.49-2.21,2.79-3.7,3.89-1.49,1.1-3.22,1.98-5.2,2.62-1.98,.64-4.17,.96-6.59,.96-2.62,0-5.14-.46-7.55-1.39-2.41-.92-4.55-2.26-6.39-4.01-1.85-1.74-3.31-3.88-4.39-6.39-1.08-2.52-1.62-5.39-1.62-8.63s.53-5.87,1.58-8.36c1.05-2.49,2.46-4.61,4.24-6.36,1.77-1.75,3.81-3.09,6.12-4.04,2.31-.95,4.7-1.43,7.17-1.43,5.96,0,10.64,1.72,14.06,5.16,3.41,3.44,5.12,8.27,5.12,14.48,0,.82-.03,1.61-.08,2.35-.05,.74-.1,1.17-.15,1.27h-26.65c.05,1.08,.32,2.07,.81,2.96,.49,.9,1.13,1.68,1.92,2.35,.8,.67,1.71,1.18,2.74,1.54,1.03,.36,2.1,.54,3.24,.54,2.16,0,3.84-.46,5.05-1.39,1.21-.92,2.09-2.13,2.66-3.62l9.78,2.77Zm-10.63-12.71c-.05-.72-.22-1.46-.5-2.23-.29-.77-.73-1.46-1.35-2.08-.62-.61-1.4-1.13-2.35-1.54-.95-.41-2.12-.62-3.5-.62-1.23,0-2.31,.21-3.24,.62-.92,.41-1.71,.92-2.35,1.54-.64,.62-1.13,1.31-1.46,2.08-.33,.77-.53,1.51-.58,2.23h15.33Z"/><path class="cls-1" d="M618.68,83.43c0-.92,.18-1.81,.54-2.66,.36-.85,.85-1.58,1.46-2.19,.62-.62,1.33-1.1,2.16-1.46,.82-.36,1.7-.54,2.62-.54,1.95,0,3.59,.67,4.93,2,1.33,1.34,2,2.95,2,4.85s-.67,3.52-2,4.85c-1.34,1.34-2.98,2-4.93,2-.92,0-1.8-.18-2.62-.54-.82-.36-1.54-.85-2.16-1.46-.61-.61-1.1-1.35-1.46-2.19-.36-.85-.54-1.73-.54-2.66Zm1,50v-38.29h11.71v38.29h-11.71Z"/><path class="cls-1" d="M656.2,95.14h7.47v10.24h-7.47v14.33c0,1.59,.38,2.66,1.15,3.2,.77,.54,1.8,.81,3.08,.81,.62,0,1.19-.04,1.73-.11,.54-.08,.99-.17,1.35-.27v9.7c-.26,.1-.87,.31-1.85,.62-.98,.31-2.39,.46-4.24,.46-4.01,0-7.14-1.09-9.4-3.27-2.26-2.18-3.39-5.2-3.39-9.05v-16.41h-6.78v-10.24h1.92c2,0,3.49-.59,4.47-1.77,.97-1.18,1.46-2.67,1.46-4.47v-4.93h10.48v11.17Z"/></svg>